<svg xmlns="http://www.w3.org/2000/svg" width="24" height="24" viewBox="0 0 24 24"><defs><style>.cls-1{fill:#aecbfa}.cls-2{fill:#669df6}.cls-3{fill:#4285f4}.cls-4{fill:#fff}</style></defs><title>Icon_24px_CloudStorage_Color</title><g data-name="Product Icons"><rect width="20" height="7" x="2" y="4" class="cls-1"/><rect width="2" height="7" x="20" y="4" class="cls-2"/><polygon points="22 4 20 4 20 11 22 4" class="cls-3"/><rect width="2" height="7" x="2" y="4" class="cls-2"/><rect width="6" height="1" x="6" y="7" class="cls-4"/><rect width="3" height="3" x="15" y="6" class="cls-4" rx="1.5"/><rect width="20" height="7" x="2" y="13" class="cls-1"/><rect width="2" height="7" x="20" y="13" class="cls-2"/><polygon points="22 13 20 13 20 20 22 13" class="cls-3"/><rect width="2" height="7" x="2" y="13" class="cls-2"/><rect width="6" height="1" x="6" y="16" class="cls-4"/><rect width="3" height="3" x="15" y="15" class="cls-4" rx="1.5"/></g></svg>