<svg xmlns="http://www.w3.org/2000/svg" xmlns:xlink="http://www.w3.org/1999/xlink" id="layer" version="1.1" viewBox="20 280 100 100"><style type="text/css">.st1{fill:#08c7fb}.st2{fill:#fff}</style><g><path d="M68.5,376.1L68.5,376.1c-25.9,0-47-21-47-47c0-25.9,21-47,47-47h35.2c6.5,0,11.7,5.3,11.7,11.7v35.2 C115.4,355.1,94.4,376.1,68.5,376.1" class="st1"/><path d="M67.8,352.4c0.6,0.4,1.4,0.3,1.8-0.3l14.8-20.6l3.4-4.8c0.8-1.1,0-2.7-1.4-2.7h-6.6H64.2l5.5-16.6 c0.2-0.5,0-1.1-0.5-1.5c-0.6-0.4-1.4-0.3-1.8,0.3l-14.8,20.6l-3.4,4.8c-0.8,1.1,0,2.7,1.4,2.7h6.6h15.7l-5.5,16.6 C67.1,351.4,67.3,352,67.8,352.4" class="st2"/></g></svg>