<svg xmlns="http://www.w3.org/2000/svg" xmlns:svg="http://www.w3.org/2000/svg" id="Layer_1" width="500" height="500" x="0" y="0" version="1.1" viewBox="0 0 500 500" xml:space="preserve"><g id="g972" transform="matrix(12.458909,0,0,12.458909,53.149238,131.60215)"><g id="g2429" transform="matrix(1.1703821,0,0,1.1703821,-3.1165512,2.2431085)"><path style="fill:#235ae6;fill-opacity:1" id="path944" d="m 26.462714,0.80306724 c 3.4,0 5.5,2.39999996 5.5,6.19999996 V 17.903067 h -4.6 V 8.0030672 c 0,-1.8 -0.8,-3 -2.4,-3 -1.2,0 -2.3,0.8 -2.6,2.2 V 18.003067 h -4.7 V 8.1030672 c 0,-1.8 -0.8,-3 -2.4,-3 -1.2,0 -2.3,0.8 -2.6,2.2 V 18.103067 H 8.0627141 V 1.1030672 h 4.5999999 v 1.4 c 0.8,-1 2.4,-1.79999996 4.2,-1.79999996 2,0 3.6,0.89999996 4.5,2.09999996 1.1,-1.1 2.7,-1.99999996 5.1,-1.99999996 z"/><path style="fill:#235ae6;fill-opacity:1" id="path942" d="M 4.9627141,17.903067 H 0.36271409 V 1.1030672 H 4.9627141 Z"/><path style="fill:#000;fill-opacity:1" id="path2" d="M 4.9627141,-5.6969328 H 0.36271409 v 4.6 H 4.9627141 Z"/></g></g></svg>