<svg xmlns="http://www.w3.org/2000/svg" width="225" height="225" fill="none"><defs><linearGradient id="a" x1="1.047" x2="-.159" y1=".454" y2=".535"><stop offset="0" stop-color="#2936a3"/><stop offset="1" stop-color="#162286"/></linearGradient><linearGradient id="b" x1="-.192" x2=".958" y1=".675" y2=".156"><stop offset="0" stop-color="#2297f4"/><stop offset="1" stop-color="#31a0f9"/></linearGradient></defs><clipPath id="c"><path id="svg_1" d="m0,0l720,0l0,150.523l-720,0l0,-150.523z"/></clipPath><g><title>Layer 1</title><path id="svg_4" fill="url(#a)" stroke="null" d="m211.145,121.3891c18.18,-18.1614 18.18,-47.6067 0,-65.7681c-18.18,-18.16132 -47.656,-18.16135 -65.836,0l-32.919,32.8841l32.817,32.7831c0.034,0.0338 0.068,0.0674 0.101,0.1011c18.161,18.1421 47.594,18.1613 65.779,0.0578l0.058,-0.058z"/><path id="svg_5" fill="#17da88" stroke="null" d="m46.5554,154.275l-32.9202,-32.8854c-18.18028,-18.1613 -18.18026,-47.6066 0,-65.768c18.1803,-18.16133 47.6564,-18.16132 65.8367,0l32.9201,32.8859l-65.8366,65.7675z"/><path id="svg_6" fill="url(#b)" stroke="null" d="m211.145,121.3893c-18.18,18.1613 -47.656,18.1613 -65.836,0c-0.034,-0.0337 -0.068,-0.0674 -0.101,-0.1011l-32.816,-32.781l-65.8363,65.7678l18.8086,18.789c25.9719,25.945 68.0807,25.945 94.0527,0l51.728,-51.6747z"/></g></svg>